# xmcd
#
# Track frame offsets:
#	150
#	11002
#	30367
#	42467
#	60607
#	72384
#	92539
#	107892
#	122416
#	143849
#
# Disc length: 2150 seconds
#
# Revision: 1
# Processed by: cddbd v1.5.1PL0 Copyright (c) Steve Scherf et al.
# Submitted via: audiograbber 1.83.01
#
DISCID=8108640a
DTITLE=Richie Pavledis - Live at the Charles
DYEAR=2004
DGENRE=Blues
TTITLE0=Last Fair Deal
TTITLE1=How Long
TTITLE2=Rock Island Line
TTITLE3=Mister River
TTITLE4=Carnarvon Shuffle
TTITLE5=I Became...
TTITLE6=Take This Hammer
TTITLE7=Can't You Line Em
TTITLE8=Mystery Train
TTITLE9=Spoonful
EXTD=
EXTT0=
EXTT1=
EXTT2=
EXTT3=
EXTT4=
EXTT5=
EXTT6=
EXTT7=
EXTT8=
EXTT9=
PLAYORDER=
